# File created by Blade
# Date/Time:  Tue Jan 27 17:16:36 2015
#---------------------------------------------------------
:version 1.10
:name HOM
:units
  mass 1.0
  length 1.000000
  angle deg
:documentation
     Acclaim Skeleton File
:root
   axis xyz
   order TX TY TZ RX RY RZ
   position 0.000000 0.000000 0.000000
   orientation 0 0 0
:bonedata
   begin
      id 1
      name Spine_dum
      direction 0.000000 1.000000 0.000000
      length 7.539951
      axis 0.0 0.0 0.0 xyz
   end
   begin
      id 2
      name LeftUpLeg_dum
      direction 1.000000 0.000000 0.000000
      length 3.345476
      axis 0.0 0.0 0.0 xyz
   end
   begin
      id 3
      name RightUpLeg_dum
      direction -1.000000 0.000000 0.000000
      length 3.345476
      axis 0.0 0.0 0.0 xyz
   end
   begin
      id 4
      name Spine
      direction 0.000000 1.000000 0.000000
      length 0.000000
      axis 0.0 0.0 0.0 xyz
      dof rx ry rz
   end
   begin
      id 5
      name Spine_dum1
      direction 0.000000 1.000000 0.000000
      length 15.093809
      axis 0.0 0.0 0.0 xyz
   end
   begin
      id 6
      name Spine_dum2
      direction 0.000000 1.000000 0.000000
      length 9.738928
      axis 0.0 0.0 0.0 xyz
   end
   begin
      id 7
      name Spine_dum3
      direction 0.000000 1.000000 0.000000
      length 9.738928
      axis 0.0 0.0 0.0 xyz
   end
   begin
      id 8
      name Head
      direction 0.000000 1.000000 0.000000
      length 4.527550
      axis 0.0 0.0 0.0 xyz
      dof rx ry rz
   end
   begin
      id 9
      name LeftShoulder
      direction 1.000000 0.000000 0.000000
      length 7.084015
      axis 0.0 0.0 -90.0 xyz
      dof rx ry rz
   end
   begin
      id 10
      name LeftArm
      direction 1.000000 0.000000 0.000000
      length 10.259319
      axis 0.0 0.0 -90.0 xyz
      dof rx ry rz
   end
   begin
      id 11
      name LeftForeArm
      direction 1.000000 0.000000 0.000000
      length 9.896984
      axis 0.0 0.0 -90.0 xyz
      dof ry rz rx
   end
   begin
      id 12
      name LeftHand
      direction 0.000000 0.000000 0.000000
      length 0.000000
      axis 0.0 0.0 -90.0 xyz
      dof rx ry rz
   end
   begin
      id 13
      name LeftHand_dum1
      direction 0.000000 0.000000 0.000000
      length 0.000000
      axis 0.0 0.0 -90.0 xyz
   end
   begin
      id 14
      name LeftHand_dum2
      direction 1.000000 0.000000 0.000000
      length 3.937000
      axis 0.0 0.0 -90.0 xyz
   end
   begin
      id 15
      name LeftHandThumb1
      direction 0.000000 0.000000 1.000000
      length 3.937000
      axis 0.0 0.0 -90.0 xyz
      dof rx rz ry
   end
   begin
      id 16
      name RightShoulder
      direction -1.000000 0.000000 0.000000
      length 7.084015
      axis 0.0 0.0 90.0 xyz
      dof rx ry rz
   end
   begin
      id 17
      name RightArm
      direction -1.000000 0.000000 0.000000
      length 10.259319
      axis 0.0 0.0 90.0 xyz
      dof rx ry rz
   end
   begin
      id 18
      name RightForeArm
      direction -1.000000 0.000000 0.000000
      length 9.896984
      axis 0.0 0.0 90.0 xyz
      dof ry rz rx
   end
   begin
      id 19
      name RightHand
      direction 0.000000 0.000000 0.000000
      length 0.000000
      axis 0.0 0.0 90.0 xyz
      dof rx ry rz
   end
   begin
      id 20
      name RightHand_dum1
      direction 0.000000 0.000000 0.000000
      length 0.000000
      axis 0.0 0.0 90.0 xyz
   end
   begin
      id 21
      name RightHand_dum2
      direction -1.000000 0.000000 0.000000
      length 3.937000
      axis 0.0 0.0 90.0 xyz
   end
   begin
      id 22
      name RightHandThumb1
      direction 0.000000 0.000000 1.000000
      length 3.937000
      axis 0.0 0.0 90.0 xyz
      dof rx rz ry
   end
   begin
      id 23
      name LeftUpLeg
      direction 0.000000 -1.000000 0.000000
      length 19.114733
      axis 0.0 0.0 0.0 xyz
      dof rx ry rz
   end
   begin
      id 24
      name LeftLeg
      direction 0.000000 -1.000000 0.000000
      length 16.045604
      axis 0.0 0.0 0.0 xyz
      dof rx ry rz
   end
   begin
      id 25
      name LeftFoot
      direction 0.000000 -0.258819 0.965926
      length 5.543155
      axis 15.0 0.0 0.0 xyz
      dof rx ry rz
   end
   begin
      id 26
      name LeftToeBase
      direction 0.000000 0.000000 1.000000
      length 2.952750
      axis 0.0 0.0 0.0 xyz
      dof rx ry rz
   end
   begin
      id 27
      name RightUpLeg
      direction 0.000000 -1.000000 0.000000
      length 19.114733
      axis 0.0 0.0 0.0 xyz
      dof rx ry rz
   end
   begin
      id 28
      name RightLeg
      direction 0.000000 -1.000000 0.000000
      length 16.045604
      axis 0.0 0.0 0.0 xyz
      dof rx ry rz
   end
   begin
      id 29
      name RightFoot
      direction 0.000000 -0.258819 0.965926
      length 5.543155
      axis 15.0 0.0 0.0 xyz
      dof rx ry rz
   end
   begin
      id 30
      name RightToeBase
      direction 0.000000 0.000000 1.000000
      length 2.952750
      axis 0.0 0.0 0.0 xyz
      dof rx ry rz
   end
:hierarchy
   begin
      root Spine_dum LeftUpLeg_dum RightUpLeg_dum
      Spine_dum Spine
      LeftUpLeg_dum LeftUpLeg
      RightUpLeg_dum RightUpLeg
      Spine Spine_dum1 Spine_dum2 Spine_dum3
      Spine_dum1 Head
      Spine_dum2 LeftShoulder
      Spine_dum3 RightShoulder
      LeftShoulder LeftArm
      LeftArm LeftForeArm
      LeftForeArm LeftHand
      LeftHand LeftHand_dum1 LeftHand_dum2
      LeftHand_dum1 LeftHandThumb1
      RightShoulder RightArm
      RightArm RightForeArm
      RightForeArm RightHand
      RightHand RightHand_dum1 RightHand_dum2
      RightHand_dum1 RightHandThumb1
      LeftUpLeg LeftLeg
      LeftLeg LeftFoot
      LeftFoot LeftToeBase
      RightUpLeg RightLeg
      RightLeg RightFoot
      RightFoot RightToeBase
   end

# File created by Blade
# Date/Time:  Tue Jan 27 17:16:27 2015
# Frame Rate: 120.000 fps
#------------------------------------------------------
:FULLY-SPECIFIED
:DEGREES
1582
root -4.617602 36.654541 2.006427 9.272132 31.499451 7.762553
Spine 1.826376 -3.565658 -9.499343
Head -4.277450 -4.125755 12.341691
LeftShoulder 1.406731 -15.333176 12.735641
LeftArm 2.700605 -17.984573 -35.638475
LeftForeArm 5.428322 -0.000000 59.552955
LeftHand -14.024521 0.000000 50.322744
LeftHandThumb1 -26.253704 0.000000 33.147579
RightShoulder -8.244428 -15.455557 5.718209
RightArm 9.963389 -18.474829 57.175314
RightForeArm -177.478432 -0.000000 28.426791
RightHand 0.762680 -0.000000 2.133582
RightHandThumb1 -24.326973 -0.000000 -32.862282
LeftUpLeg -76.898225 24.440350 1.535460
LeftLeg 127.881618 -0.000000 -0.000000
LeftFoot -12.007560 -4.873442 -17.950587
LeftToeBase 13.168593 -0.000000 -0.000000
RightUpLeg -15.474182 -17.654284 5.905713
RightLeg 22.367993 -0.000000 -0.000000
RightFoot -20.446864 -15.134556 4.422051
RightToeBase 5.413516 -0.000000 -0.000000
1583
root -4.607683 36.637829 2.013179 9.133228 31.493097 7.687833
Spine 1.921907 -3.557283 -9.366639
Head -4.175690 -3.976984 12.164824
LeftShoulder 1.365987 -15.334479 12.665572
LeftArm 2.722059 -18.099491 -35.674505
LeftForeArm 5.340103 0.000000 59.512310
LeftHand -13.881708 0.000000 50.366150
LeftHandThumb1 -26.253704 0.000000 33.147579
RightShoulder -8.200310 -15.398421 5.671573
RightArm 10.064772 -18.517056 57.049343
RightForeArm -177.589113 -0.000000 28.486919
RightHand 0.743784 -0.000000 2.200424
RightHandThumb1 -24.326973 -0.000000 -32.862282
LeftUpLeg -76.935292 24.542935 1.785471
LeftLeg 127.226874 -0.000000 -0.000000
LeftFoot -12.207361 -4.061681 -17.812713
LeftToeBase 13.270232 -0.000000 -0.000000
RightUpLeg -15.444636 -17.632928 5.929631
RightLeg 22.568182 -0.000000 -0.000000
RightFoot -20.558159 -15.186769 4.437527
RightToeBase 5.346924 -0.000000 -0.000000
1584
root -4.595835 36.621988 2.018664 9.009320 31.470467 7.660625
Spine 2.029722 -3.541040 -9.295209
Head -4.091291 -3.838003 12.030712
LeftShoulder 1.311305 -15.359805 12.595670
LeftArm 2.784155 -18.143825 -35.684402
LeftForeArm 5.365541 -0.000000 59.408901
LeftHand -13.939458 -0.000000 50.735667
LeftHandThumb1 -26.253704 0.000000 33.147579
RightShoulder -8.141977 -15.322703 5.636439
RightArm 10.150156 -18.512210 56.937969
RightForeArm -177.686168 0.000000 28.528243
RightHand 0.743276 -0.000000 2.092646
RightHandThumb1 -24.326973 -0.000000 -32.862282
LeftUpLeg -76.971138 24.626261 1.999481
LeftLeg 126.612345 -0.000000 -0.000000
LeftFoot -11.999886 -3.423500 -17.399020
LeftToeBase 13.532277 -0.000000 -0.000000
RightUpLeg -15.421918 -17.579476 5.902151
RightLeg 22.802687 -0.000000 -0.000000
RightFoot -20.690988 -15.239696 4.430838
RightToeBase 5.313726 -0.000000 -0.000000
1585
root -4.582250 36.606309 2.021841 8.900000 31.422057 7.666284
Spine 2.141735 -3.502195 -9.264826
Head -4.016821 -3.702487 11.916958
LeftShoulder 1.267524 -15.411588 12.543008
LeftArm 2.782592 -18.217688 -35.700185
LeftForeArm 5.380307 -0.000000 59.347385
LeftHand -13.914234 -0.000000 51.013555
LeftHandThumb1 -26.253704 0.000000 33.147579
RightShoulder -8.094759 -15.231990 5.595798
RightArm 10.230781 -18.483292 56.861927
RightForeArm -177.699019 -0.000000 28.558436
RightHand 0.751526 -0.000000 2.239841
RightHandThumb1 -24.326973 -0.000000 -32.862282
LeftUpLeg -77.022310 24.711673 2.177861
LeftLeg 126.069822 -0.000000 -0.000000
LeftFoot -11.518047 -3.063183 -16.961679
LeftToeBase 13.711127 -0.000000 -0.000000
RightUpLeg -15.418022 -17.524176 5.846353
RightLeg 23.074396 -0.000000 -0.000000
RightFoot -20.819540 -15.278592 4.425602
RightToeBase 5.231211 -0.000000 -0.000000
1586
root -4.568092 36.592140 2.025906 8.773800 31.357119 7.683030
Spine 2.271539 -3.432357 -9.260113
Head -3.894114 -3.595356 11.811892
LeftShoulder 1.235852 -15.422434 12.513126
LeftArm 2.796476 -18.367397 -35.760940
LeftForeArm 5.450217 -0.000000 59.286555
LeftHand -13.862471 -0.000000 51.227578
LeftHandThumb1 -26.253704 0.000000 33.147579
RightShoulder -8.036767 -15.150203 5.566160
RightArm 10.292670 -18.436172 56.783179
RightForeArm -177.518906 -0.000000 28.588488
RightHand 0.679865 -0.000000 2.355693
RightHandThumb1 -24.326973 -0.000000 -32.862282
LeftUpLeg -77.050532 24.797160 2.360136
LeftLeg 125.608407 -0.000000 -0.000000
LeftFoot -10.862351 -3.003985 -16.750623
LeftToeBase 13.897596 -0.000000 -0.000000
RightUpLeg -15.372738 -17.456249 5.770910
RightLeg 23.318299 -0.000000 -0.000000
RightFoot -20.896031 -15.334060 4.319226
RightToeBase 5.054905 -0.000000 -0.000000
1587
root -4.543671 36.578271 2.023253 8.709126 31.283829 7.823806
Spine 2.406018 -3.378028 -9.375724
Head -3.781353 -3.494510 11.745956
LeftShoulder 1.194155 -15.453944 12.532075
LeftArm 2.774590 -18.516254 -35.851831
LeftForeArm 5.530778 -0.000000 59.234687
LeftHand -13.815724 -0.000000 51.484852
LeftHandThumb1 -26.253704 0.000000 33.147579
RightShoulder -7.960675 -15.079978 5.516377
RightArm 10.336699 -18.288532 56.765303
RightForeArm -177.487040 -0.000000 28.630218
RightHand 0.670312 -0.000000 2.449045
RightHandThumb1 -24.326973 -0.000000 -32.862282
LeftUpLeg -77.110249 24.834102 2.368281
LeftLeg 125.216724 -0.000000 -0.000000
LeftFoot -10.177646 -3.165088 -16.979681
LeftToeBase 14.503596 -0.000000 -0.000000
RightUpLeg -15.496142 -17.576841 5.609913
RightLeg 23.888118 -0.000000 -0.000000
RightFoot -21.061861 -15.349404 4.194810
RightToeBase 5.010749 -0.000000 -0.000000
1588
root -4.526668 36.566292 2.025841 8.584933 31.201470 7.846459
Spine 2.520908 -3.286935 -9.372353
Head -3.648209 -3.410387 11.637456
LeftShoulder 1.166241 -15.444409 12.526557
LeftArm 2.775463 -18.707783 -35.959059
LeftForeArm 5.670202 -0.000000 59.162816
LeftHand -13.784511 -0.000000 51.709548
LeftHandThumb1 -26.253704 0.000000 33.147579
RightShoulder -7.884396 -15.030221 5.474554
RightArm 10.379739 -18.130226 56.721550
RightForeArm -177.392285 -0.000000 28.666382
RightHand 0.645673 -0.000000 2.580135
RightHandThumb1 -24.326973 -0.000000 -32.862282
LeftUpLeg -77.227132 24.931804 2.451083
LeftLeg 124.900054 -0.000000 -0.000000
LeftFoot -9.455564 -3.443140 -17.392633
LeftToeBase 14.863351 -0.000000 -0.000000
RightUpLeg -15.445805 -17.457205 5.517024
RightLeg 24.120662 -0.000000 -0.000000
RightFoot -21.170767 -15.433782 4.200870
RightToeBase 4.953240 -0.000000 -0.000000
1589
root -4.512064 36.556174 2.031010 8.438985 31.106383 7.820210
Spine 2.625315 -3.176515 -9.314126
Head -3.529854 -3.335217 11.530335
LeftShoulder 1.107712 -15.473044 12.523132
LeftArm 2.771710 -18.960909 -36.160107
LeftForeArm 5.867198 -0.000000 59.127348
LeftHand -13.852233 0.000000 51.826805
LeftHandThumb1 -26.253704 0.000000 33.147579
RightShoulder -7.814805 -15.002678 5.423681
RightArm 10.447263 -17.955697 56.673948
RightForeArm -177.168250 -0.000000 28.687854
RightHand 0.668480 -0.000000 2.875336
RightHandThumb1 -24.326973 -0.000000 -32.862282
LeftUpLeg -77.417402 25.067338 2.522601
LeftLeg 124.640655 -0.000000 -0.000000
LeftFoot -8.526097 -3.693318 -17.686918
LeftToeBase 14.652830 -0.000000 -0.000000
RightUpLeg -15.309169 -17.285926 5.452755
RightLeg 24.173160 -0.000000 -0.000000
RightFoot -21.243163 -15.469159 4.240099
RightToeBase 4.836652 -0.000000 -0.000000
1590
root -4.493726 36.546587 2.033559 8.308738 30.996274 7.831996
Spine 2.733583 -3.059931 -9.289709
Head -3.399602 -3.277247 11.403992
LeftShoulder 1.055002 -15.482474 12.473978
LeftArm 2.740327 -19.032704 -36.171798
LeftForeArm 5.836659 -0.000000 59.104840
LeftHand -13.920668 -0.000000 52.047127
LeftHandThumb1 -26.253704 0.000000 33.147579
RightShoulder -7.734256 -14.982630 5.362556
RightArm 10.494595 -17.783831 56.615813
RightForeArm -177.042314 -0.000000 28.758680
RightHand 0.643235 0.000000 3.020905
RightHandThumb1 -24.326973 -0.000000 -32.862282
LeftUpLeg -77.653479 25.227597 2.504290
LeftLeg 124.407140 -0.000000 -0.000000
LeftFoot -7.546871 -4.012357 -17.976677
LeftToeBase 14.518689 -0.000000 -0.000000
RightUpLeg -15.225600 -17.166871 5.362645
RightLeg 24.335897 -0.000000 -0.000000
RightFoot -21.322275 -15.516203 4.226797
RightToeBase 4.777655 -0.000000 -0.000000
1591
root -4.473100 36.539110 2.034781 8.178358 30.879702 7.844401
Spine 2.836545 -2.923930 -9.251877
Head -3.245149 -3.205521 11.268857
LeftShoulder 1.024270 -15.517382 12.389121
LeftArm 2.688244 -19.170482 -36.207561
LeftForeArm 5.933333 0.000000 59.074067
LeftHand -13.885709 -0.000000 52.135882
LeftHandThumb1 -26.253704 0.000000 33.147579
RightShoulder -7.670603 -14.982503 5.303607
RightArm 10.575748 -17.624572 56.532509
RightForeArm -176.871860 -0.000000 28.801087
RightHand 0.657634 -0.000000 3.159733
RightHandThumb1 -24.326973 -0.000000 -32.862282
LeftUpLeg -77.939928 25.409030 2.435753
LeftLeg 124.176673 -0.000000 -0.000000
LeftFoot -6.571754 -4.308760 -18.345837
LeftToeBase 14.726065 -0.000000 -0.000000
RightUpLeg -15.145857 -17.060764 5.271344
RightLeg 24.502455 -0.000000 -0.000000
RightFoot -21.391407 -15.564818 4.209921
RightToeBase 4.716435 -0.000000 -0.000000
1592
root -4.449478 36.531813 2.034546 8.049823 30.749876 7.865058
Spine 2.941067 -2.790402 -9.202651
Head -3.106729 -3.133947 11.088859
LeftShoulder 0.946572 -15.557747 12.317700
LeftArm 2.676391 -19.255498 -36.286223
LeftForeArm 6.033800 -0.000000 58.999063
LeftHand -13.858000 -0.000000 52.211881
LeftHandThumb1 -26.253704 0.000000 33.147579
RightShoulder -7.575602 -14.997523 5.192679
RightArm 10.646117 -17.436295 56.487715
RightForeArm -176.588889 -0.000000 28.841755
RightHand 0.563610 -0.000000 3.364194
RightHandThumb1 -24.326973 -0.000000 -32.862282
LeftUpLeg -78.298811 25.606985 2.287844
LeftLeg 123.919422 -0.000000 -0.000000
LeftFoot -5.464219 -4.465616 -18.452696
LeftToeBase 14.925737 -0.000000 -0.000000
RightUpLeg -15.091266 -16.990541 5.174194
RightLeg 24.719253 -0.000000 -0.000000
RightFoot -21.453949 -15.599757 4.164294
RightToeBase 4.683181 -0.000000 -0.000000
1593
root -4.424678 36.524551 2.032827 7.935095 30.606246 7.906144
Spine 3.037922 -2.615550 -9.170399
Head -2.982807 -3.101874 10.904074
LeftShoulder 0.898011 -15.596485 12.252417
LeftArm 2.645668 -19.320177 -36.346059
LeftForeArm 6.009353 -0.000000 58.932601
LeftHand -13.883750 -0.000000 52.446855
LeftHandThumb1 -26.253704 0.000000 33.147579
RightShoulder -7.501627 -15.009176 5.068394
RightArm 10.715394 -17.267337 56.454903
RightForeArm -176.395053 0.000000 28.874020
RightHand 0.542139 -0.000000 3.509936
RightHandThumb1 -24.326973 -0.000000 -32.862282
LeftUpLeg -78.698198 25.816381 2.108235
LeftLeg 123.597938 -0.000000 -0.000000
LeftFoot -4.402789 -4.938704 -19.529992
LeftToeBase 16.003027 -0.000000 -0.000000
RightUpLeg -15.073239 -16.949569 5.066902
RightLeg 24.998325 -0.000000 -0.000000
RightFoot -21.524541 -15.643564 4.079444
RightToeBase 4.656814 -0.000000 -0.000000
1594
root -4.410261 36.520019 2.037108 7.748304 30.454206 7.804658
Spine 3.130039 -2.430352 -8.993948
Head -2.856131 -3.037060 10.677996
LeftShoulder 0.808806 -15.642044 12.165630
LeftArm 2.626798 -19.378985 -36.426705
LeftForeArm 6.033521 -0.000000 58.866252
LeftHand -13.715014 0.000000 52.514620
LeftHandThumb1 -26.253704 0.000000 33.147579
RightShoulder -7.404613 -15.015583 4.939948
RightArm 10.792055 -17.170347 56.375422
RightForeArm -176.238917 -0.000000 28.892200
RightHand 0.487805 -0.000000 3.711360
RightHandThumb1 -24.326973 -0.000000 -32.862282
LeftUpLeg -79.167834 26.092347 2.005777
LeftLeg 123.214079 -0.000000 -0.000000
LeftFoot -2.953797 -5.076304 -19.482311
LeftToeBase 15.575890 -0.000000 -0.000000
RightUpLeg -14.858537 -16.738448 5.062342
RightLeg 24.884354 -0.000000 -0.000000
RightFoot -21.525108 -15.683696 4.086239
RightToeBase 4.597954 -0.000000 -0.000000
